# Blender 3.4.1
# www.blender.org
mtllib BackScreen.mtl
o Cube
v 0.900000 0.100000 -1.345330
v 0.672665 0.100000 -1.800000
v 0.888873 0.100000 -1.485831
v 0.856583 0.100000 -1.612578
v 0.806289 0.100000 -1.713166
v 0.742915 0.100000 -1.777747
v 0.672665 -0.100000 -1.800000
v 0.900000 -0.100000 -1.345330
v 0.742915 -0.100000 -1.777747
v 0.806289 -0.100000 -1.713166
v 0.856583 -0.100000 -1.612578
v 0.888873 -0.100000 -1.485831
v 0.672665 0.100000 1.800000
v 0.900000 0.100000 1.345330
v 0.742915 0.100000 1.777747
v 0.806289 0.100000 1.713166
v 0.856583 0.100000 1.612578
v 0.888873 0.100000 1.485831
v 0.900000 -0.100000 1.345330
v 0.672665 -0.100000 1.800000
v 0.888873 -0.100000 1.485831
v 0.856583 -0.100000 1.612578
v 0.806289 -0.100000 1.713166
v 0.742915 -0.100000 1.777747
v -0.672665 0.100000 -1.800000
v -0.900000 0.100000 -1.345330
v -0.742915 0.100000 -1.777747
v -0.806289 0.100000 -1.713166
v -0.856583 0.100000 -1.612578
v -0.888873 0.100000 -1.485831
v -0.900000 -0.100000 -1.345330
v -0.672665 -0.100000 -1.800000
v -0.888873 -0.100000 -1.485831
v -0.856583 -0.100000 -1.612578
v -0.806289 -0.100000 -1.713166
v -0.742915 -0.100000 -1.777747
v -0.900000 0.100000 1.345330
v -0.672665 0.100000 1.800000
v -0.888873 0.100000 1.485831
v -0.856583 0.100000 1.612578
v -0.806289 0.100000 1.713166
v -0.742915 0.100000 1.777747
v -0.672665 -0.100000 1.800000
v -0.900000 -0.100000 1.345330
v -0.742915 -0.100000 1.777747
v -0.806289 -0.100000 1.713166
v -0.856583 -0.100000 1.612578
v -0.888873 -0.100000 1.485831
vn -0.0000 -1.0000 -0.0000
vn -1.0000 -0.0000 -0.0000
vn -0.0000 -0.0000 1.0000
vn -0.0000 1.0000 -0.0000
vn 1.0000 -0.0000 -0.0000
vn 0.9969 -0.0000 -0.0789
vn 0.9690 -0.0000 -0.2469
vn 0.8944 -0.0000 -0.4472
vn 0.7137 -0.0000 -0.7004
vn 0.3020 -0.0000 -0.9533
vn -0.3020 -0.0000 0.9533
vn -0.7137 -0.0000 0.7004
vn -0.8944 -0.0000 0.4472
vn -0.9690 -0.0000 0.2469
vn -0.9969 -0.0000 0.0789
vn 0.3020 -0.0000 0.9533
vn 0.7137 -0.0000 0.7004
vn 0.8944 -0.0000 0.4472
vn 0.9690 -0.0000 0.2469
vn 0.9969 -0.0000 0.0789
vn -0.3020 -0.0000 -0.9533
vn -0.7137 -0.0000 -0.7004
vn -0.8944 -0.0000 -0.4472
vn -0.9690 -0.0000 -0.2469
vn -0.9969 -0.0000 -0.0789
vn -0.0000 -0.0000 -1.0000
vt 0.625000 0.531574
vt 0.656574 0.500000
vt 0.625000 0.468426
vt 0.626545 0.521817
vt 0.625000 0.521817
vt 0.631030 0.513015
vt 0.625000 0.513015
vt 0.638015 0.506030
vt 0.625000 0.486985
vt 0.646817 0.501545
vt 0.625000 0.478183
vt 0.343426 0.500000
vt 0.375000 0.468426
vt 0.375000 0.531574
vt 0.353183 0.501545
vt 0.375000 0.478183
vt 0.361985 0.506030
vt 0.375000 0.486985
vt 0.368970 0.513015
vt 0.375000 0.513015
vt 0.373455 0.521817
vt 0.375000 0.521817
vt 0.656574 0.750000
vt 0.625000 0.781574
vt 0.625000 0.718426
vt 0.646817 0.748455
vt 0.625000 0.771817
vt 0.638015 0.743970
vt 0.625000 0.763015
vt 0.631030 0.736985
vt 0.625000 0.736985
vt 0.626545 0.728183
vt 0.625000 0.728183
vt 0.375000 0.718426
vt 0.343426 0.750000
vt 0.375000 0.781574
vt 0.373455 0.728183
vt 0.375000 0.728183
vt 0.368970 0.736985
vt 0.375000 0.736985
vt 0.361985 0.743970
vt 0.375000 0.763015
vt 0.353183 0.748455
vt 0.375000 0.771817
vt 0.843426 0.500000
vt 0.625000 0.281574
vt 0.875000 0.531574
vt 0.625000 0.218426
vt 0.853183 0.501545
vt 0.625000 0.271817
vt 0.861985 0.506030
vt 0.625000 0.263015
vt 0.868970 0.513015
vt 0.625000 0.236985
vt 0.873455 0.521817
vt 0.625000 0.228183
vt 0.125000 0.531574
vt 0.375000 0.218426
vt 0.156574 0.500000
vt 0.375000 0.281574
vt 0.126545 0.521817
vt 0.375000 0.228183
vt 0.131030 0.513015
vt 0.375000 0.236985
vt 0.138015 0.506030
vt 0.375000 0.263015
vt 0.146817 0.501545
vt 0.375000 0.271817
vt 0.875000 0.718426
vt 0.625000 0.031574
vt 0.843426 0.750000
vt 0.625000 0.968426
vt 0.873455 0.728183
vt 0.625000 0.021817
vt 0.868970 0.736985
vt 0.625000 0.013015
vt 0.861985 0.743970
vt 0.625000 1.000000
vt 0.625000 0.000000
vt 0.853183 0.748455
vt 0.625000 0.978183
vt 0.156574 0.750000
vt 0.375000 0.968426
vt 0.125000 0.718426
vt 0.375000 0.031574
vt 0.146817 0.748455
vt 0.375000 0.978183
vt 0.138015 0.743970
vt 0.375000 1.000000
vt 0.375000 0.000000
vt 0.131030 0.736985
vt 0.375000 0.013015
vt 0.126545 0.728183
vt 0.375000 0.021817
s 0
usemtl Material
f 31/57/1 33/61/1 34/63/1 35/65/1 36/67/1 32/59/1 7/12/1 9/15/1 10/17/1 11/19/1 12/21/1 8/14/1 19/34/1 21/37/1 22/39/1 23/41/1 24/43/1 20/35/1 43/82/1 45/86/1 46/88/1 47/91/1 48/93/1 44/84/1
f 44/85/2 37/70/2 26/48/2 31/58/2
f 20/36/3 13/24/3 38/72/3 43/83/3
f 1/1/4 3/4/4 4/6/4 5/8/4 6/10/4 2/2/4 25/45/4 27/49/4 28/51/4 29/53/4 30/55/4 26/47/4 37/69/4 39/73/4 40/75/4 41/77/4 42/80/4 38/71/4 13/23/4 15/26/4 16/28/4 17/30/4 18/32/4 14/25/4
f 8/14/5 1/1/5 14/25/5 19/34/5
f 1/1/6 8/14/6 12/22/6 3/5/6
f 3/5/7 12/22/7 11/20/7 4/7/7
f 4/7/8 11/20/8 10/18/8 5/9/8
f 5/9/9 10/18/9 9/16/9 6/11/9
f 6/11/10 9/16/10 7/13/10 2/3/10
f 43/83/11 38/72/11 42/81/11 45/87/11
f 45/87/12 42/81/12 41/78/12 46/89/12
f 46/90/13 41/79/13 40/76/13 47/92/13
f 47/92/14 40/76/14 39/74/14 48/94/14
f 48/94/15 39/74/15 37/70/15 44/85/15
f 13/24/16 20/36/16 24/44/16 15/27/16
f 15/27/17 24/44/17 23/42/17 16/29/17
f 16/29/18 23/42/18 22/40/18 17/31/18
f 17/31/19 22/40/19 21/38/19 18/33/19
f 18/33/20 21/38/20 19/34/20 14/25/20
f 25/46/21 32/60/21 36/68/21 27/50/21
f 27/50/22 36/68/22 35/66/22 28/52/22
f 28/52/23 35/66/23 34/64/23 29/54/23
f 29/54/24 34/64/24 33/62/24 30/56/24
f 30/56/25 33/62/25 31/58/25 26/48/25
f 32/60/26 25/46/26 2/3/26 7/13/26
